<?xml version="1.0" standalone="no"?>
<!DOCTYPE svg PUBLIC "-//W3C//DTD SVG 20010904//EN"
 "http://www.w3.org/TR/2001/REC-SVG-20010904/DTD/svg10.dtd">
<svg version="1.0" xmlns="http://www.w3.org/2000/svg"
 width="192.000000pt" height="192.000000pt" viewBox="0 0 192.000000 192.000000"
 preserveAspectRatio="xMidYMid meet">

<g transform="translate(0.000000,192.000000) scale(0.100000,-0.100000)"
fill="#000000" stroke="none">
<path d="M1230 1792 c0 -19 79 -82 118 -94 41 -13 42 -13 42 -59 0 -29 -6 -51
-15 -59 -8 -7 -15 -18 -15 -25 0 -16 -66 -142 -96 -181 -13 -17 -20 -34 -17
-38 4 -3 0 -6 -9 -6 -8 0 -25 11 -38 25 -13 14 -29 25 -36 25 -26 0 -23 19 11
56 19 21 35 42 35 47 0 4 9 29 21 54 13 29 23 77 27 125 4 72 3 81 -18 103
-13 14 -27 25 -30 25 -4 0 -10 -35 -13 -78 -3 -48 -13 -96 -26 -125 -12 -25
-21 -50 -21 -54 0 -11 -49 -65 -79 -85 -20 -14 -22 -20 -11 -33 11 -13 3 -15
-71 -15 -46 0 -128 -3 -181 -7 l-98 -6 0 24 c0 40 -67 160 -118 213 -53 55
-176 156 -190 156 -16 0 -38 -33 -58 -85 -14 -39 -18 -78 -19 -180 0 -124 1
-132 26 -170 15 -22 38 -51 52 -64 l25 -23 -19 -45 c-14 -34 -19 -68 -19 -142
l0 -98 -77 -6 c-43 -3 -86 -8 -96 -12 -17 -7 -17 -9 3 -30 20 -21 23 -21 72
-8 87 22 98 19 98 -26 0 -21 3 -53 6 -70 6 -27 4 -31 -15 -31 -30 0 -26 -10
20 -52 l41 -38 -53 -54 c-88 -89 -96 -107 -61 -139 23 -21 32 -21 32 -2 0 9
28 44 63 78 l62 62 77 -3 77 -3 -46 -69 c-26 -39 -52 -70 -58 -70 -7 0 -12
-12 -12 -27 -1 -16 -1 -115 -2 -222 l-1 -195 27 -28 c37 -39 53 -36 53 9 0 29
3 34 12 25 22 -22 33 -16 113 51 18 15 35 27 38 27 4 0 29 -20 57 -45 28 -25
57 -45 65 -45 8 0 36 13 63 29 l49 29 45 -44 44 -45 55 15 c88 24 191 62 231
85 20 12 62 54 94 93 l57 70 -42 42 c-40 40 -43 41 -102 38 -33 -1 -72 -8 -87
-16 -15 -7 -70 -28 -122 -46 -52 -18 -128 -48 -168 -66 -40 -19 -76 -34 -81
-34 -5 0 -14 -7 -21 -15 -13 -16 -35 -21 -26 -7 9 15 204 122 221 122 14 0 15
3 6 14 -9 11 -4 17 29 30 50 20 64 20 80 1 17 -21 25 -19 45 12 14 20 15 30 7
44 -14 23 -8 26 70 44 66 15 164 48 175 58 3 4 15 -10 27 -31 18 -33 21 -55
23 -191 3 -153 3 -155 30 -183 51 -53 55 -43 51 115 l-4 142 -41 80 c-31 59
-63 101 -122 160 -45 44 -81 84 -81 89 0 6 -15 25 -32 44 -31 31 -32 34 -15
46 9 7 17 23 17 35 0 29 13 27 78 -17 67 -45 123 -61 241 -68 47 -3 100 -10
116 -15 l30 -10 -27 27 c-24 25 -36 28 -134 35 -123 9 -202 25 -227 47 -9 8
-27 20 -38 26 -12 6 -21 14 -20 19 0 4 1 27 1 51 l0 45 83 4 c99 6 199 22 250
40 36 13 37 14 19 30 -21 19 -64 22 -93 7 -20 -11 -113 -27 -207 -37 -52 -5
-54 -4 -50 18 2 16 12 26 33 32 17 5 47 17 67 28 20 10 46 19 58 19 11 0 37 7
58 16 20 9 69 23 107 31 39 8 82 17 98 20 32 6 34 14 8 37 -16 14 -25 15 -62
6 -24 -6 -73 -17 -109 -24 -36 -8 -82 -21 -102 -30 -21 -9 -46 -16 -57 -16
-11 0 -35 -9 -53 -20 -43 -26 -48 -25 -48 7 0 31 -44 124 -70 148 -19 17 -18
18 9 54 33 41 101 168 101 186 0 7 7 18 15 25 11 9 15 32 15 83 0 89 -17 109
-111 137 -37 11 -72 27 -79 35 -13 16 -30 20 -30 7z m-734 -112 c13 0 82 -71
99 -102 29 -50 55 -111 55 -127 0 -9 7 -26 15 -38 14 -20 14 -23 -4 -33 -11
-5 -30 -10 -43 -10 -41 0 -97 -20 -127 -46 -40 -33 -69 -28 -93 16 -35 66 -12
307 35 368 8 10 15 8 32 -8 12 -11 26 -20 31 -20z m705 -365 c19 -13 43 -30
55 -36 36 -19 59 -76 59 -146 l0 -64 -50 -27 c-27 -14 -52 -28 -54 -29 -10 -7
34 -43 48 -41 25 4 63 -28 59 -49 -3 -16 -11 -18 -63 -14 l-60 3 19 -21 c12
-14 31 -21 53 -21 27 0 34 -4 31 -16 -4 -22 -15 -27 -123 -55 -67 -17 -123
-24 -215 -26 -117 -2 -123 -1 -92 13 17 8 32 21 32 29 0 17 16 20 25 5 9 -15
117 -12 138 4 24 19 21 38 -12 70 -28 27 -28 27 -24 4 4 -19 -2 -27 -22 -36
-36 -17 -100 -15 -115 3 -17 21 -40 19 -40 -4 0 -36 -118 -67 -150 -38 -8 6
-2 -3 14 -20 22 -25 38 -33 63 -33 23 0 31 -4 27 -14 -3 -7 7 -23 22 -35 l27
-21 -65 0 c-37 0 -69 5 -77 13 -11 10 -14 10 -18 0 -5 -13 -163 -20 -163 -7 0
12 34 64 42 64 4 0 8 9 8 19 0 12 9 21 25 25 14 4 39 15 55 25 l30 18 -23 21
-23 21 -87 -44 c-48 -25 -92 -45 -97 -45 -6 0 -10 27 -10 60 l0 60 72 0 c70 0
71 0 53 20 -14 15 -31 20 -72 20 l-53 0 0 75 c0 95 29 166 90 218 24 20 48 37
54 38 6 0 34 5 61 11 71 14 207 24 371 26 136 2 142 1 175 -23z m-721 -559 c0
-3 -4 -8 -10 -11 -5 -3 -10 -1 -10 4 0 6 5 11 10 11 6 0 10 -2 10 -4z m453
-53 c-13 -2 -35 -2 -50 0 -16 2 -5 4 22 4 28 0 40 -2 28 -4z m144 -4 c-14 -8
-22 -8 -30 0 -8 8 -3 11 19 11 25 -1 27 -2 11 -11z m375 -101 c40 -39 53 -66
16 -31 -13 11 -29 18 -36 16 -8 -3 -27 7 -43 23 -22 21 -26 30 -17 41 12 15
18 11 80 -49z m-264 -6 c-35 -9 -54 -10 -61 -3 -7 7 -3 13 14 20 13 5 20 10
14 11 -5 0 3 7 20 14 27 11 31 10 47 -8 16 -21 15 -21 -34 -34z m-388 44 c0
-2 -9 -6 -20 -9 -11 -3 -18 -1 -14 4 5 9 34 13 34 5z m-36 -64 c15 -18 15 -19
-9 -30 -14 -7 -33 -12 -41 -12 -13 0 -13 4 3 30 20 35 24 36 47 12z m-144
-351 c0 -6 -4 -13 -10 -16 -5 -3 -10 1 -10 9 0 9 5 16 10 16 6 0 10 -4 10 -9z
m450 -85 c0 -2 -7 -7 -16 -10 -8 -3 -12 -2 -9 4 6 10 25 14 25 6z"/>
<path d="M1042 1207 c-8 -9 -23 -17 -35 -19 -16 -2 -23 -11 -25 -30 -3 -21 7
-39 44 -78 45 -48 49 -50 100 -50 48 0 59 4 106 43 61 50 71 81 36 114 -32 30
-205 45 -226 20z m163 -57 c-15 -25 -42 -29 -60 -10 -18 20 -17 20 24 20 25 0
40 -4 36 -10z m-130 -40 c18 -20 17 -20 -8 -20 -20 0 -27 5 -27 20 0 11 4 20
8 20 5 0 17 -9 27 -20z"/>
<path d="M595 1175 c-60 -17 -85 -44 -85 -93 0 -41 41 -92 74 -92 44 0 152 33
168 51 9 10 26 19 37 19 16 0 21 6 21 27 0 33 -46 83 -76 83 -13 0 -26 5 -29
10 -8 13 -49 11 -110 -5z"/>
</g>
</svg>
